<?xml version="1.0" encoding="utf-8"?>
<!-- Generator: Adobe Illustrator 23.0.3, SVG Export Plug-In . SVG Version: 6.00 Build 0)  -->
<svg version="1.1" id="Layer_1" xmlns="http://www.w3.org/2000/svg" xmlns:xlink="http://www.w3.org/1999/xlink" x="0px" y="0px"
	 viewBox="0 0 1366 768" style="enable-background:new 0 0 1366 768;" xml:space="preserve">
<style type="text/css">
	.st0{fill:#0071BC;}
	.st1{fill:#FBB03B;}
	.st2{fill:#FFFFFF;stroke:#000000;stroke-width:7.2445;stroke-miterlimit:10;}
	.st3{fill:none;stroke:#000000;stroke-width:1.6964;stroke-miterlimit:10;}
	.st4{fill:#F2F2F2;}
	.st5{fill:none;stroke:#F2F2F2;stroke-width:6.5723;stroke-miterlimit:10;}
	.st6{fill-rule:evenodd;clip-rule:evenodd;fill:none;stroke:#000000;stroke-width:1.1752;stroke-miterlimit:10;}
	.st7{font-family:'Algerian';}
	.st8{font-size:53.0493px;}
</style>
<g>
	<path class="st0" d="M161.83,1057.82c25.92-121.49,41.83-246.13,47.29-370.53c6.27-142.58-1.08-286.41-21.84-427.58
		c2.02-0.27,4-0.84,5.92-1.7L1058.47-2.32l7.45,1360.75L161.83,1057.82z"/>
	<path d="M1055.2,2.09l4.95,903.53l2.45,448.25l-446.92-148.6l-450.03-149.64c25.59-120.75,41.32-244.6,46.75-368.2
		c6.23-141.76-0.98-284.74-21.42-425.14c1.14-0.32,2.26-0.72,3.37-1.2l200.73-60.39L1055.2,2.09 M1061.73-6.73
		C771.83,80.49,481.94,167.71,192.04,254.93c-2.43,1.12-4.98,1.68-7.48,1.68c-0.36,0-0.71-0.01-1.06-0.03
		c17.37,116.79,29.71,262.93,22.34,430.57c-6.32,143.75-25.64,269.48-47.84,372.87c303.74,101,607.48,201.99,911.23,302.99
		C1066.73,906.42,1064.23,449.85,1061.73-6.73L1061.73-6.73z"/>
</g>
<g>
	<path class="st1" d="M1086.52-3.11h379.47c-33.9,239.26-35.24,480.77-3.97,717.89c18.6,141.08,49,281.49,90.34,417.39
		l-465.84,223.34V-3.11z"/>
	<path d="M1461.82,0.51c-33.38,238.24-34.53,478.65-3.4,714.74c18.49,140.25,48.62,279.83,89.56,414.99l-310.28,148.76
		l-147.57,70.75V0.51H1461.82 M1470.17-6.73H1082.9v1368c157.95-75.73,315.89-151.45,473.84-227.18
		c-36.2-118.48-69.96-259.34-91.12-419.78C1427.65,426.46,1443.74,177.72,1470.17-6.73L1470.17-6.73z"/>
</g>
<path class="st2" d="M1903,813.08"/>
<path class="st3" d="M534,184"/>
<path class="st3" d="M862.73,236.17"/>
<g>
	<g>
		<path class="st4" d="M275.61,722.77L292.1,725l-0.05,5.44l-35.56-0.41l0.05-5.44l16.53-1.85L275.61,722.77z M257.32,644.3
			l0.05-5.44l17.78,0.2l-0.07,7.49l-1.27-0.01L257.32,644.3z M269.03,681.18c0.14-14.02,0.27-28.17,0.03-42.2l12.19,0.14
			c-0.51,13.74-0.65,27.9-0.79,42.19l-0.05,5.17c-0.15,15.65-0.29,29.8-0.04,43.83l-12.19-0.14c0.51-13.74,0.65-27.9,0.79-42.19
			L269.03,681.18z M304.41,687.17l-29.72-0.34l0.06-6.26l29.72,0.34L304.41,687.17z M310.33,639.46l5.65,6.87l-40.9-0.47l0.07-6.8
			l45.34,0.52l0.65,24.24l-7.11-0.08L310.33,639.46z M300.39,682.22l2.04-14.4l5.72,0.06l-0.33,33.62l-5.72-0.06l-1.76-15.13
			L300.39,682.22z"/>
		<path class="st4" d="M347.88,723.6l-0.07,7.49l-17.78-0.2l0.05-5.44l16.53-1.85L347.88,723.6z M330.86,645.14l0.05-5.44
			l35.56,0.41l-0.05,5.44l-16.53,1.85l-2.54-0.03L330.86,645.14z M342.59,639.83l12.19,0.14c-0.52,14.01-0.65,28.17-0.79,42.19
			l-0.09,9.53c-0.11,11.57-0.25,25.72,0,39.47l-12.19-0.14c0.52-14.01,0.65-28.17,0.79-42.19l0.07-6.81
			C342.7,667.73,342.84,653.58,342.59,639.83z M394.66,706.03l-1.52,25.57l-45.34-0.52l0.07-6.81l40.9,0.47l-7.05,6.73l5.33-25.53
			L394.66,706.03z"/>
		<path class="st4" d="M423.7,724.46l-0.07,7.49l-17.78-0.2l0.05-5.44l16.53-1.85L423.7,724.46z M406.68,646l0.05-5.44l17.78,0.2
			l-0.07,7.49l-1.27-0.01L406.68,646z M418.39,682.89c0.14-14.02,0.27-28.17,0.03-42.2l12.19,0.14c-0.51,13.74-0.65,27.9-0.79,42.19
			l-0.05,5.17c-0.15,15.65-0.29,29.81-0.04,43.83l-12.19-0.14c0.51-13.74,0.65-27.9,0.79-42.19L418.39,682.89z M472.63,708.28
			l-1.12,24.22l-47.88-0.55l0.07-6.81l43.44,0.5l-5.78,6.74l4.17-24.18L472.63,708.28z M452.75,688.86l-28.7-0.33l0.06-6.26
			l28.7,0.33L452.75,688.86z M459.69,641.16l5.65,6.87l-40.9-0.47l0.07-6.8l45.34,0.52l0.65,24.24l-7.11-0.08L459.69,641.16z
			 M448.74,683.91l2.04-14.41l5.72,0.06l-0.31,32.26l-5.72-0.06l-1.76-15.13L448.74,683.91z"/>
		<path class="st4" d="M481.98,727.17l13.35-1.89l2.54,0.03l12.43,2.18l-0.05,5.44l-28.32-0.32L481.98,727.17z M482.81,641.43
			l16.77,0.19l-0.07,7.49l-1.52-0.02l-15.22-2.21L482.81,641.43z M494.24,641.56l5.33,0.06l0.75,40.57l-0.49,50.63l-6.48-0.07
			L494.24,641.56z M494.37,641.56l11.3,0.13L536,723.7l-4.32-0.05l30.26-81.33l6.73,0.08l-34.03,90.81l-6.22-0.07L494.37,641.56z
			 M551.45,727.96l15.26-1.87l2.54,0.03l16.49,2.23l-0.05,5.44l-34.29-0.39L551.45,727.96z M562.86,691.34l0.48-49l11.56,0.13
			c-0.51,13.74-0.65,27.9-0.79,42.19l-0.07,6.81c-0.14,14.02-0.27,28.17-0.03,42.2l-11.94-0.14
			C562.58,719.79,562.72,705.63,562.86,691.34z M568.79,642.41l17.78,0.2l-0.05,5.44l-16.53,1.85l-1.27-0.01L568.79,642.41z"/>
		<path class="st4" d="M592.1,728.42l12.72-1.9l2.54,0.03l13.95,2.2l-0.05,5.44l-29.21-0.33L592.1,728.42z M630.78,642.43l7.62,0.09
			l28.32,92.2l-11.81-0.13l-24.74-81.82l2.92,0.03l-26.7,81.23l-5.97-0.07L630.78,642.43z M615.38,698.06l34.29,0.39l1.97,6.28
			l-38.36-0.44L615.38,698.06z M640.1,728.97l16.02-1.86l2.54,0.03l15.73,2.22l-0.05,5.44l-34.29-0.39L640.1,728.97z"/>
		<path class="st4" d="M754.95,714.36c0.08-8.85-4.83-12.85-15.83-17.6l-4.81-2.1c-12.9-5.59-21.72-13.59-21.58-27.47
			c0.15-15.65,12.56-25.04,28.69-24.86c8.51,0.1,15.21,3.03,20.63,7.45l-0.93,17.68l-7.62-0.09l-3.36-20.59l8.08,4.58l-0.07,6.8
			c-6.16-6.6-10.84-8.97-17.57-9.05c-9.91-0.11-17.45,5.11-17.55,15.32c-0.08,8.57,5.08,13.67,14.31,17.59l4.93,2.1
			c16.7,7.13,23.1,15.1,22.97,27.89c-0.16,16.06-12.83,25.72-30.22,25.52c-9.53-0.11-18.77-3.48-24.57-7.5l0.95-19.05l7.62,0.09
			l3.1,21l-8.22-3.9l0.06-6.53c7.82,6.21,12.11,8.99,20.74,9.08C746.78,730.87,754.84,724.97,754.95,714.36z"/>
		<path class="st4" d="M794.95,728.7l16.49,2.23l-0.05,5.45l-35.56-0.41l0.05-5.44l16.53-1.85L794.95,728.7z M776.66,650.22
			l0.05-5.44l35.56,0.41l-0.05,5.45l-16.53,1.85l-2.54-0.03L776.66,650.22z M788.37,687.11c0.14-14.02,0.27-28.17,0.03-42.2
			l12.19,0.14c-0.51,13.74-0.65,27.9-0.79,42.19l-0.04,4.08c-0.16,16.74-0.3,30.89-0.05,44.92l-12.19-0.14
			c0.51-13.74,0.65-27.9,0.79-42.19L788.37,687.11z M794.03,692.62l0.06-6.26l53.34,0.61l-0.06,6.26L794.03,692.62z M848.29,729.3
			l16.49,2.23l-0.05,5.44l-35.56-0.41l0.05-5.44l16.53-1.85L848.29,729.3z M830,650.83l0.05-5.44l35.56,0.41l-0.05,5.44l-16.53,1.85
			l-2.54-0.03L830,650.83z M841.71,687.71c0.14-14.02,0.27-28.17,0.03-42.2l12.19,0.14c-0.51,13.74-0.65,27.9-0.79,42.19l-0.07,6.81
			c-0.14,14.02-0.27,28.17-0.03,42.2l-12.19-0.14c0.51-13.74,0.65-27.9,0.82-44.91L841.71,687.71z"/>
		<path class="st4" d="M954.58,692.4c-0.29,29.81-19.51,47.42-39.2,47.2c-19.69-0.22-38.7-17.05-38.4-48.08
			c0.29-29.81,19.77-47.42,39.33-47.19C935.87,644.55,954.89,661.37,954.58,692.4z M915.45,732.79c17.91,0.2,25.6-20.13,25.8-40.54
			c0.2-20.42-7.1-40.92-25-41.12c-17.91-0.2-25.73,20.12-25.92,40.54C890.12,712.09,897.54,732.59,915.45,732.79z"/>
		<path class="st4" d="M985.08,730.86l16.49,2.23l-0.05,5.44l-35.56-0.41l0.05-5.44l16.53-1.85L985.08,730.86z M966.79,652.39
			l0.05-5.44l17.78,0.2l-0.07,7.49l-1.27-0.01L966.79,652.39z M978.5,689.27c0.14-14.02,0.27-28.17,0.03-42.2l12.19,0.14
			c-0.51,13.74-0.65,27.9-0.79,42.19l-0.08,8.3c-0.13,13.88-0.26,26.67-0.01,40.7l-12.19-0.14c0.51-13.74,0.65-27.9,0.79-42.19
			L978.5,689.27z M996.66,702.41l-12.57-0.14l0.06-6.26l14.48,0.17c15.62,0.18,21.8-8.6,21.93-21.53
			c0.13-13.2-6.66-20.9-22.02-21.08l-13.97-0.16l0.06-6.26l16.38,0.19c21.08,0.24,31.77,11.52,31.62,27.45
			C1032.47,690.03,1022.57,702.71,996.66,702.41z"/>
	</g>
</g>
<g>
	<path class="st5" d="M415.42,188.34c-8.98-34.86-37.99-163.74,22.78-301.26c42.97-97.25,109.57-150.67,141.24-172.85
		c16.29-11.41,99.15-53.87,177.69-24.69c99.04,36.79,166.82,180.99,145.8,350.64"/>
</g>
<g>
	<path class="st5" d="M517.16,158.96c-10.91-60.97-22.04-178.35,32.86-302.15c23.84-53.76,57.44-129.52,141.24-172.85
		c6.91-3.57,88.03-44.17,177.69-24.69C993.97-313.57,1094.6-178.5,1110.42-4.91"/>
</g>
<path class="st6" d="M763.87,194.17"/>
<path class="st6" d="M630.42,192.4"/>
<text transform="matrix(0.9203 0 0 1 650.6333 574.752)" class="st4 st7 st8">FLEMA POS</text>
<path class="st6" d="M612.5,294.5"/>
</svg>
